# This file uses centimeters as units for non-parametric coordinates.

v -0.437136 -0.437136 -0.740582
v -0.120283 -0.604363 2.243604
v -0.437136 0.437135 -0.740582
v -0.595039 0.127359 2.142807
v 0.437135 0.437135 -0.740582
v 0.120283 0.604364 2.411376
v 0.437135 -0.437136 -0.740582
v 0.595039 -0.127359 2.512174
v 0.483203 -0.237003 4.608586
v -0.249565 -0.475737 4.284612
v 0.309276 0.496551 4.186203
v -0.423492 0.257818 3.862230
v 0.276165 0.108933 5.779584
v -0.241811 0.015911 5.679200
v 0.205359 0.607548 5.502067
v -0.496868 0.191424 5.401682
v 0.327634 0.266154 7.316347
v -0.001907 0.077202 6.691192
v 0.130306 0.752205 7.193245
v -0.199235 0.563253 6.568091
v -0.194340 0.521401 7.861241
vt 0.375000 0.000000
vt 0.625000 0.000000
vt 0.375000 0.250000
vt 0.625000 0.250000
vt 0.375000 0.500000
vt 0.625000 0.500000
vt 0.375000 0.750000
vt 0.625000 0.750000
vt 0.375000 1.000000
vt 0.625000 1.000000
vt 0.875000 0.000000
vt 0.875000 0.250000
vt 0.625000 0.000000
vt 0.875000 0.000000
vt 0.875000 0.250000
vt 0.625000 0.250000
vt 0.625000 0.000000
vt 0.875000 0.000000
vt 0.875000 0.250000
vt 0.625000 0.250000
vt 0.625000 0.000000
vt 0.875000 0.000000
vt 0.875000 0.250000
vt 0.625000 0.250000
vt 0.750000 0.125000
vn -0.959022 -0.283316 0.002947
vn -0.959022 -0.283316 0.002947
vn -0.959022 -0.283316 0.002947
vn -0.959022 -0.283316 0.002947
vn -0.287420 0.957805 0.000013
vn -0.287420 0.957805 0.000013
vn -0.287420 0.957805 0.000013
vn -0.287420 0.957805 0.000013
vn 0.958927 0.283641 0.002673
vn 0.958927 0.283641 0.002673
vn 0.958927 0.283641 0.002673
vn 0.958927 0.283641 0.002673
vn 0.287416 -0.957806 0.000013
vn 0.287416 -0.957806 0.000013
vn 0.287416 -0.957806 0.000013
vn 0.287416 -0.957806 0.000013
vn 0.433216 -0.900811 0.029379
vn 0.433216 -0.900811 0.029379
vn 0.433216 -0.900811 0.029379
vn 0.433216 -0.900811 0.029379
vn 0.913782 0.406178 0.004604
vn 0.913782 0.406178 0.004604
vn 0.913782 0.406178 0.004604
vn 0.913782 0.406178 0.004604
vn -0.456252 0.888891 0.041315
vn -0.456253 0.888891 0.041315
vn -0.456252 0.888891 0.041315
vn -0.456252 0.888891 0.041315
vn -0.918639 -0.393322 0.037424
vn -0.918639 -0.393322 0.037424
vn -0.918639 -0.393322 0.037424
vn -0.918639 -0.393322 0.037424
vn 0.141155 -0.937818 0.317133
vn 0.141155 -0.937818 0.317133
vn 0.141155 -0.937818 0.317133
vn 0.141155 -0.937818 0.317133
vn 0.968529 0.236478 0.077654
vn 0.968529 0.236478 0.077654
vn 0.968529 0.236478 0.077654
vn 0.968529 0.236478 0.077654
vn -0.405167 0.913392 -0.039426
vn -0.405167 0.913392 -0.039426
vn -0.405167 0.913392 -0.039426
vn -0.405167 0.913392 -0.039426
vn -0.914654 -0.402460 0.037875
vn -0.914654 -0.402460 0.037875
vn -0.914654 -0.402460 0.037875
vn -0.914654 -0.402460 0.037875
vn 0.275900 -0.959846 0.050750
vn 0.275900 -0.959846 0.050750
vn 0.275900 -0.959846 0.050750
vn 0.275900 -0.959846 0.050750
vn 0.966451 0.256295 -0.016908
vn 0.966451 0.256295 -0.016908
vn 0.966451 0.256295 -0.016908
vn 0.966451 0.256295 -0.016908
vn -0.433522 0.892082 -0.127469
vn -0.433522 0.892082 -0.127469
vn -0.433522 0.892082 -0.127469
vn -0.433522 0.892082 -0.127469
vn -0.862527 -0.411389 0.294629
vn -0.862527 -0.411389 0.294629
vn -0.862527 -0.411389 0.294629
vn -0.862527 -0.411389 0.294629
vn -0.104669 -0.935350 0.337883
vn -0.104669 -0.935350 0.337883
vn -0.104669 -0.935350 0.337883
vn 0.743863 0.431299 0.510539
vn 0.743863 0.431299 0.510539
vn 0.743863 0.431299 0.510539
vn -0.538443 0.842152 0.029294
vn -0.538443 0.842153 0.029294
vn -0.538443 0.842153 0.029294
vn -0.925745 -0.378047 -0.008731
vn -0.925745 -0.378047 -0.008731
vn -0.925745 -0.378047 -0.008731
f 1/1/1 2/2/2 4/4/3 3/3/4
f 3/3/5 4/4/6 6/6/7 5/5/8
f 5/5/9 6/6/10 8/8/11 7/7/12
f 7/7/13 8/8/14 2/10/15 1/9/16
f 2/2/17 8/11/18 9/14/19 10/13/20
f 8/11/21 6/12/22 11/15/23 9/14/24
f 6/12/25 4/4/26 12/16/27 11/15/28
f 4/4/29 2/2/30 10/13/31 12/16/32
f 10/13/33 9/14/34 13/18/35 14/17/36
f 9/14/37 11/15/38 15/19/39 13/18/40
f 11/15/41 12/16/42 16/20/43 15/19/44
f 12/16/45 10/13/46 14/17/47 16/20/48
f 14/17/49 13/18/50 17/22/51 18/21/52
f 13/18/53 15/19/54 19/23/55 17/22/56
f 15/19/57 16/20/58 20/24/59 19/23/60
f 16/20/61 14/17/62 18/21/63 20/24/64
f 18/21/65 17/22/66 21/25/67
f 17/22/68 19/23/69 21/25/70
f 19/23/71 20/24/72 21/25/73
f 20/24/74 18/21/75 21/25/76
