# This file uses centimeters as units for non-parametric coordinates.

v -0.437136 -0.437136 -0.740582
v -0.192012 -0.583875 1.761108
v -0.437136 0.437135 -0.740582
v -0.604937 0.164269 1.962960
v 0.188345 0.437135 -0.740582
v 0.384291 0.583875 1.950650
v 0.437135 -0.437136 -0.740582
v 0.604937 -0.164268 1.748798
v 0.529371 -0.185319 4.183782
v -0.243011 -0.556967 3.916385
v 0.331351 0.568591 3.795718
v -0.511815 0.277413 3.490929
v 0.222663 -0.023595 5.826404
v -0.340690 0.023155 5.641069
v 0.317064 0.550566 5.563522
v -0.527112 0.299758 5.321872
v 0.327634 0.166339 6.962804
v -0.001907 -0.022613 6.337649
v 0.130306 0.652390 6.839702
v -0.199235 0.463438 6.214549
v -0.194340 0.521401 7.275737
vt 0.375000 0.000000
vt 0.625000 0.000000
vt 0.375000 0.250000
vt 0.625000 0.250000
vt 0.375000 0.500000
vt 0.625000 0.500000
vt 0.375000 0.750000
vt 0.625000 0.750000
vt 0.375000 1.000000
vt 0.625000 1.000000
vt 0.875000 0.000000
vt 0.875000 0.250000
vt 0.625000 0.000000
vt 0.875000 0.000000
vt 0.875000 0.250000
vt 0.625000 0.250000
vt 0.625000 0.000000
vt 0.875000 0.000000
vt 0.875000 0.250000
vt 0.625000 0.250000
vt 0.625000 0.000000
vt 0.875000 0.000000
vt 0.875000 0.250000
vt 0.625000 0.250000
vt 0.750000 0.125000
vn -0.969252 -0.246011 -0.005434
vn -0.969252 -0.246011 -0.005434
vn -0.969252 -0.246011 -0.005434
vn -0.969252 -0.246011 -0.005434
vn -0.251269 0.967622 0.023933
vn -0.251269 0.967621 0.023933
vn -0.251269 0.967622 0.023933
vn -0.251269 0.967621 0.023933
vn 0.953627 0.287151 -0.090215
vn 0.953628 0.287151 -0.090215
vn 0.953627 0.287151 -0.090215
vn 0.953628 0.287151 -0.090215
vn 0.243547 -0.969879 0.004360
vn 0.243547 -0.969879 0.004360
vn 0.243547 -0.969879 0.004360
vn 0.243547 -0.969879 0.004360
vn 0.448418 -0.893722 0.013505
vn 0.448418 -0.893722 0.013505
vn 0.448418 -0.893722 0.013505
vn 0.448418 -0.893722 0.013505
vn 0.961806 0.271950 0.031187
vn 0.961806 0.271950 0.031187
vn 0.961806 0.271950 0.031187
vn 0.961806 0.271950 0.031187
vn -0.358384 0.933296 -0.022808
vn -0.358384 0.933296 -0.022808
vn -0.358384 0.933296 -0.022808
vn -0.358384 0.933295 -0.022808
vn -0.919411 -0.392475 0.025438
vn -0.919411 -0.392475 0.025438
vn -0.919411 -0.392475 0.025438
vn -0.919411 -0.392475 0.025438
vn 0.155590 -0.960598 0.230313
vn 0.155590 -0.960598 0.230313
vn 0.155590 -0.960598 0.230313
vn 0.155590 -0.960598 0.230313
vn 0.988831 0.120285 0.088002
vn 0.988831 0.120285 0.088002
vn 0.988831 0.120285 0.088002
vn 0.988831 0.120285 0.088002
vn -0.304745 0.952427 -0.003649
vn -0.304745 0.952427 -0.003649
vn -0.304745 0.952427 -0.003649
vn -0.304745 0.952427 -0.003649
vn -0.932108 -0.360806 0.031518
vn -0.932108 -0.360806 0.031518
vn -0.932108 -0.360806 0.031518
vn -0.932108 -0.360806 0.031518
vn 0.111763 -0.992425 0.050998
vn 0.111763 -0.992425 0.050998
vn 0.111763 -0.992425 0.050998
vn 0.111763 -0.992425 0.050998
vn 0.994331 0.104215 0.021105
vn 0.994331 0.104215 0.021105
vn 0.994331 0.104215 0.021105
vn 0.994331 0.104215 0.021105
vn -0.284748 0.953559 -0.098204
vn -0.284748 0.953559 -0.098204
vn -0.284748 0.953559 -0.098204
vn -0.284748 0.953559 -0.098204
vn -0.893033 -0.222527 0.391119
vn -0.893033 -0.222527 0.391119
vn -0.893033 -0.222527 0.391119
vn -0.893033 -0.222527 0.391119
vn -0.320943 -0.846387 0.424999
vn -0.320943 -0.846387 0.424999
vn -0.320943 -0.846387 0.424999
vn 0.660287 0.424904 0.619256
vn 0.660287 0.424903 0.619256
vn 0.660287 0.424904 0.619256
vn -0.427771 0.902647 -0.047331
vn -0.427771 0.902647 -0.047331
vn -0.427771 0.902647 -0.047331
vn -0.928424 -0.370711 0.024532
vn -0.928424 -0.370711 0.024532
vn -0.928424 -0.370711 0.024532
f 1/1/1 2/2/2 4/4/3 3/3/4
f 3/3/5 4/4/6 6/6/7 5/5/8
f 5/5/9 6/6/10 8/8/11 7/7/12
f 7/7/13 8/8/14 2/10/15 1/9/16
f 2/2/17 8/11/18 9/14/19 10/13/20
f 8/11/21 6/12/22 11/15/23 9/14/24
f 6/12/25 4/4/26 12/16/27 11/15/28
f 4/4/29 2/2/30 10/13/31 12/16/32
f 10/13/33 9/14/34 13/18/35 14/17/36
f 9/14/37 11/15/38 15/19/39 13/18/40
f 11/15/41 12/16/42 16/20/43 15/19/44
f 12/16/45 10/13/46 14/17/47 16/20/48
f 14/17/49 13/18/50 17/22/51 18/21/52
f 13/18/53 15/19/54 19/23/55 17/22/56
f 15/19/57 16/20/58 20/24/59 19/23/60
f 16/20/61 14/17/62 18/21/63 20/24/64
f 18/21/65 17/22/66 21/25/67
f 17/22/68 19/23/69 21/25/70
f 19/23/71 20/24/72 21/25/73
f 20/24/74 18/21/75 21/25/76
